<?xml version="1.0" encoding="UTF-8"?>
<svg id="Layer_1" data-name="Layer 1" xmlns="http://www.w3.org/2000/svg" xmlns:xlink="http://www.w3.org/1999/xlink" viewBox="0 0 500 500">
  <defs>
    <style>
      .cls-1 {
        opacity: .74;
      }

      .cls-2 {
        fill: url(#linear-gradient);
      }

      .cls-2, .cls-3, .cls-4, .cls-5, .cls-6, .cls-7 {
        stroke-width: 0px;
      }

      .cls-8 {
        mask: url(#mask-2);
      }

      .cls-3 {
        fill: none;
      }

      .cls-9 {
        clip-path: url(#clippath-1);
      }

      .cls-4 {
        fill: url(#linear-gradient-2);
      }

      .cls-5 {
        fill: #fff;
        fill-rule: evenodd;
      }

      .cls-6 {
        fill: url(#linear-gradient-3);
      }

      .cls-10 {
        clip-path: url(#clippath);
      }

      .cls-11 {
        mask: url(#mask-1);
      }

      .cls-12 {
        mask: url(#mask);
      }

      .cls-7 {
        fill: url(#linear-gradient-4);
      }
    </style>
    <clipPath id="clippath">
      <rect class="cls-3" width="502" height="502"/>
    </clipPath>
    <clipPath id="clippath-1">
      <rect class="cls-3" x="-681.83" y="-92.33" width="1809" height="804"/>
    </clipPath>
    <linearGradient id="linear-gradient" x1="1223.7" y1="415.21" x2="-791.93" y2="202.69" gradientUnits="userSpaceOnUse">
      <stop offset="0" stop-color="#e1b3d4"/>
      <stop offset=".5" stop-color="#b3dff3"/>
      <stop offset="1" stop-color="#f1f2e1"/>
    </linearGradient>
    <linearGradient id="linear-gradient-2" x1="189.29" y1="3762.41" x2="-373.76" y2="4195.74" gradientTransform="translate(7.34 -3796.16)" gradientUnits="userSpaceOnUse">
      <stop offset="0" stop-color="#fff"/>
      <stop offset="1" stop-color="#000"/>
    </linearGradient>
    <mask id="mask" x="-648.44" y="-92.33" width="797.74" height="804" maskUnits="userSpaceOnUse">
      <rect class="cls-4" x="-648.44" y="-92.33" width="797.74" height="804"/>
    </mask>
    <linearGradient id="linear-gradient-3" x1="386.6" y1="3861.22" x2="-250.97" y2="4352.51" gradientTransform="translate(98.9 -3796.16)" xlink:href="#linear-gradient-2"/>
    <mask id="mask-1" x="-227.29" y="-92.33" width="790.71" height="804" maskUnits="userSpaceOnUse">
      <rect class="cls-6" x="-227.29" y="-92.33" width="790.71" height="804"/>
    </mask>
    <linearGradient id="linear-gradient-4" x1="579.21" y1="3638.7" x2="167.96" y2="4309.39" gradientTransform="translate(125.84 -3796.16)" xlink:href="#linear-gradient-2"/>
    <mask id="mask-2" x="-103.35" y="-92.33" width="1043.95" height="804" maskUnits="userSpaceOnUse">
      <rect class="cls-7" x="-103.35" y="-92.33" width="1043.95" height="804"/>
    </mask>
  </defs>
  <g class="cls-10">
    <g class="cls-1">
      <g class="cls-9">
        <rect class="cls-2" x="-681.83" y="-92.33" width="1809" height="804"/>
      </g>
      <g class="cls-12">
        <path class="cls-5" d="m-648.44-92.33L-153.77,402.34c84.7,84.7,86.89,221.91,6.56,309.32h54.83l176.46-176.46c86.95-86.95,86.95-229.22,0-316.17L-227.29-92.33h-421.15Z"/>
      </g>
      <g class="cls-11">
        <path class="cls-5" d="m84.08,219.04c86.95,86.95,86.95,229.22,0,316.17l-176.46,176.46h651.41c14.2-71-6.07-147.69-60.82-202.44L-103.35-92.33h-123.94L84.08,219.04Z"/>
      </g>
      <g class="cls-8">
        <path class="cls-5" d="m-103.35-92.33L498.21,509.23c54.75,54.75,75.02,131.44,60.82,202.44h104.09l212.26-212.26c86.95-86.95,86.95-229.22,0-316.17L599.81-92.33H-103.35Z"/>
      </g>
    </g>
  </g>
</svg>